<svg xmlns="http://www.w3.org/2000/svg" viewBox="0 0 276.35 49.37"><defs><style>.cls-1{fill:#fff;}.cls-2{fill:#e62d3d;}</style></defs><title>logo-arvb-2020-complet</title><g id="Calque_2" data-name="Calque 2"><g id="logo"><g id="logo-arvb-2020-complet"><path class="cls-1" d="M52.22,41.66V.34h3.72V41.66Z"/><path class="cls-1" d="M69,42a5.44,5.44,0,0,1-3.29-.85,4.28,4.28,0,0,1-1.58-2.29,11.67,11.67,0,0,1-.43-3.34V14.62H60.07V12.17h3.62V3h3.72v9.13H72.3v2.45H67.41V35.18a6.93,6.93,0,0,0,.48,3,2.22,2.22,0,0,0,2.12.89,8.41,8.41,0,0,0,1-.08c.39-.05.76-.11,1.1-.18v2.86a15.8,15.8,0,0,1-1.58.23C70,42,69.5,42,69,42Z"/><path class="cls-1" d="M83.67,42.12A8.39,8.39,0,0,1,79.16,41a6.41,6.41,0,0,1-2.6-3.65,22.27,22.27,0,0,1-.84-6.78V23.14a21.5,21.5,0,0,1,.86-6.86,6.29,6.29,0,0,1,2.65-3.52,8.75,8.75,0,0,1,4.49-1A7.39,7.39,0,0,1,88.46,13a7.1,7.1,0,0,1,2.26,4,30.24,30.24,0,0,1,.64,6.87v2.65H79.44v5.15a18.62,18.62,0,0,0,.43,4.52,4.21,4.21,0,0,0,1.38,2.37,3.84,3.84,0,0,0,2.42.71,4.68,4.68,0,0,0,2-.43,3.09,3.09,0,0,0,1.46-1.68,9.51,9.51,0,0,0,.53-3.55v-2h3.62v1.63a11.23,11.23,0,0,1-1.66,6.46C88.55,41.31,86.55,42.12,83.67,42.12Zm-4.23-17.7h8.25V22a27,27,0,0,0-.25-4,4.7,4.7,0,0,0-1.1-2.55,3.54,3.54,0,0,0-2.67-.89,4.25,4.25,0,0,0-2.48.66,4,4,0,0,0-1.35,2.38,22.43,22.43,0,0,0-.4,4.87Z"/><path class="cls-1" d="M96.66,41.66V12.17h3.77v4a9,9,0,0,1,3.26-3.34,7.45,7.45,0,0,1,3.52-1h.31a1.18,1.18,0,0,1,.35.05v4a3.44,3.44,0,0,0-.86-.23,6.79,6.79,0,0,0-1-.08,6.08,6.08,0,0,0-3.14.82,7.23,7.23,0,0,0-2.47,2.6V41.66Z"/><path class="cls-1" d="M111.54,41.66V12.17h3.72v3.06a13,13,0,0,1,3.21-2.52,7.87,7.87,0,0,1,3.88-1,4.15,4.15,0,0,1,2.49.74,4.45,4.45,0,0,1,1.53,2.15,9.92,9.92,0,0,1,.51,3.39V41.66h-3.72V18.81a5.66,5.66,0,0,0-.69-3.24,2.43,2.43,0,0,0-2.11-1,5.18,5.18,0,0,0-2.6.77,11.21,11.21,0,0,0-2.5,2V41.66Z"/><path class="cls-1" d="M137.48,42.12a5.49,5.49,0,0,1-3.11-.89,6.1,6.1,0,0,1-2.06-2.4,7.39,7.39,0,0,1-.74-3.29,10.16,10.16,0,0,1,.64-3.83,7.47,7.47,0,0,1,2-2.83,18.36,18.36,0,0,1,3.67-2.45q2.27-1.2,5.52-2.68V21.66a21.57,21.57,0,0,0-.33-4.26A3.88,3.88,0,0,0,142,15.18a3.34,3.34,0,0,0-2.22-.66,4.52,4.52,0,0,0-2.08.46,3.31,3.31,0,0,0-1.48,1.56,6.66,6.66,0,0,0-.56,3v1L132,20.54q0-4.48,1.91-6.66c1.24-1.44,3.27-2.17,6.09-2.17q4,0,5.58,2.38t1.6,7.37V35.79c0,.51,0,1.17.06,2s.06,1.55.1,2.27.07,1.26.1,1.63h-3.31c-.07-.65-.17-1.37-.31-2.17s-.22-1.44-.25-1.91a7.41,7.41,0,0,1-2.17,3.16A5.67,5.67,0,0,1,137.48,42.12ZM138.65,39a3.78,3.78,0,0,0,2-.57A7.07,7.07,0,0,0,142.32,37a7,7,0,0,0,1.12-1.6V26.25c-1.46.75-2.71,1.43-3.74,2a15.92,15.92,0,0,0-2.52,1.79,5.47,5.47,0,0,0-1.43,2,6.57,6.57,0,0,0-.46,2.58,4.54,4.54,0,0,0,1,3.34A3.28,3.28,0,0,0,138.65,39Z"/><path class="cls-1" d="M159.4,42a5.42,5.42,0,0,1-3.29-.85,4.23,4.23,0,0,1-1.58-2.29,11.67,11.67,0,0,1-.43-3.34V14.62h-3.62V12.17h3.62V3h3.72v9.13h4.89v2.45h-4.89V35.18a6.93,6.93,0,0,0,.48,3c.32.59,1,.89,2.12.89a8.41,8.41,0,0,0,1-.08c.39-.05.76-.11,1.1-.18v2.86a15.8,15.8,0,0,1-1.58.23C160.43,42,159.91,42,159.4,42Z"/><path class="cls-1" d="M167.09,8.09V3h3.72V8.09Zm0,33.57V12.17h3.72V41.66Z"/><path class="cls-1" d="M181.51,41.66l-6.37-29.49h3.77l4.8,25.2,4.73-25.2h3.62L185.9,41.66Z"/><path class="cls-1" d="M203.22,42.12a8.44,8.44,0,0,1-4.51-1.1,6.45,6.45,0,0,1-2.6-3.65,22.27,22.27,0,0,1-.84-6.78V23.14a21.46,21.46,0,0,1,.87-6.86,6.29,6.29,0,0,1,2.65-3.52,8.71,8.71,0,0,1,4.48-1A7.36,7.36,0,0,1,208,13a7.06,7.06,0,0,1,2.27,4,30.24,30.24,0,0,1,.64,6.87v2.65H199v5.15a18.54,18.54,0,0,0,.44,4.52,4.21,4.21,0,0,0,1.37,2.37,3.88,3.88,0,0,0,2.42.71,4.69,4.69,0,0,0,2-.43,3.07,3.07,0,0,0,1.45-1.68,9.28,9.28,0,0,0,.54-3.55v-2h3.62v1.63a11.23,11.23,0,0,1-1.66,6.46Q207.56,42.12,203.22,42.12ZM199,24.42h8.26V22a26.84,26.84,0,0,0-.26-4,4.69,4.69,0,0,0-1.09-2.55,3.55,3.55,0,0,0-2.68-.89,4.22,4.22,0,0,0-2.47.66,3.89,3.89,0,0,0-1.35,2.38,22.31,22.31,0,0,0-.41,4.87Z"/><path class="cls-1" d="M226.61,41.66V12.17h3.78v4a9,9,0,0,1,3.26-3.34,7.38,7.38,0,0,1,3.51-1h.31a1.29,1.29,0,0,1,.36.05v4a3.65,3.65,0,0,0-.87-.23,6.67,6.67,0,0,0-1-.08,6,6,0,0,0-3.13.82,7.06,7.06,0,0,0-2.47,2.6V41.66Z"/><path class="cls-1" d="M245.93,41.66l-6.37-29.49h3.77l4.79,25.2,4.74-25.2h3.62l-6.17,29.49Z"/><path class="cls-1" d="M269.27,42.12a5.2,5.2,0,0,1-3.08-.92A12.52,12.52,0,0,1,264,39.31v2.35H260.3V.34H264V14.62a9,9,0,0,1,2.24-2,6,6,0,0,1,3.37-.9,5.64,5.64,0,0,1,3.46,1,6.3,6.3,0,0,1,2,2.68,13.8,13.8,0,0,1,1,3.77,35.57,35.57,0,0,1,.25,4.29v6.22a30,30,0,0,1-.63,6.56,8.86,8.86,0,0,1-2.17,4.33A5.71,5.71,0,0,1,269.27,42.12Zm-.66-3a3.08,3.08,0,0,0,2.57-1.07,6.51,6.51,0,0,0,1.12-3.19,39.31,39.31,0,0,0,.28-5.13V23.45a34.37,34.37,0,0,0-.28-4.82,5.93,5.93,0,0,0-1.12-3,3.19,3.19,0,0,0-2.62-1,4.72,4.72,0,0,0-2.58.77,11.94,11.94,0,0,0-2,1.53V37a7.65,7.65,0,0,0,2,1.5A5.3,5.3,0,0,0,268.61,39.16Z"/><g id="logo-arvb-2019-black-original"><circle class="cls-1" cx="3.97" cy="24.75" r="3.97"/><path class="cls-1" d="M16.85.2v49a.2.2,0,0,0,.2.2h3.57a.2.2,0,0,0,.2-.2V26.82a.2.2,0,0,1,.2-.2H39.25a.2.2,0,0,1,.2.22,20.61,20.61,0,0,1-6,12.5L32.23,40.6a.19.19,0,0,0,0,.28l2.52,2.52a.19.19,0,0,0,.28,0l1.26-1.26A24.69,24.69,0,0,0,18.84,0H17.05A.2.2,0,0,0,16.85.2Zm4,4.08a.2.2,0,0,1,.22-.2A20.76,20.76,0,0,1,39.43,22.43a.19.19,0,0,1-.19.22H21a.2.2,0,0,1-.2-.19Z"/><polygon class="cls-1" points="3.97 44.34 7.93 37.48 0 37.48 3.97 44.34"/><polygon class="cls-2" points="3.97 5.01 7.93 11.88 0 11.88 3.97 5.01"/></g></g></g></g></svg>